<svg width="28" height="28" viewBox="0 0 16 16" fill="none" xmlns="http://www.w3.org/2000/svg">
<path d="M6.8013 1.35884C7.54386 0.930118 8.45874 0.930117 9.2013 1.35884L13.1522 3.63986C13.8947 4.06858 14.3522 4.86089 14.3522 5.71832V10.2804C14.3522 11.1378 13.8947 11.9301 13.1522 12.3588L9.2013 14.6399C8.45874 15.0686 7.54386 15.0686 6.8013 14.6399L2.85045 12.3588C2.10789 11.9301 1.65045 11.1378 1.65045 10.2804V5.71832C1.65045 4.86089 2.10789 4.06858 2.85045 3.63986L6.8013 1.35884Z" fill="white"/>
<path d="M6.8013 1.35884C7.54386 0.930118 8.45874 0.930117 9.2013 1.35884L13.1522 3.63986C13.8947 4.06858 14.3522 4.86089 14.3522 5.71832V10.2804C14.3522 11.1378 13.8947 11.9301 13.1522 12.3588L9.2013 14.6399C8.45874 15.0686 7.54386 15.0686 6.8013 14.6399L2.85045 12.3588C2.10789 11.9301 1.65045 11.1378 1.65045 10.2804V5.71832C1.65045 4.86089 2.10789 4.06858 2.85045 3.63986L6.8013 1.35884Z" stroke="white" stroke-width="0.5"/>
</svg>
