<svg width="16" height="16" viewBox="0 0 16 16" fill="none" xmlns="http://www.w3.org/2000/svg">
<g clip-path="url(#clip0_0_1495)">
<path d="M6.66536 6.66732V6.00065C6.66536 5.64703 6.80584 5.30789 7.05589 5.05784C7.30594 4.80779 7.64508 4.66732 7.9987 4.66732C8.35232 4.66732 8.69146 4.80779 8.94151 5.05784C9.19155 5.30789 9.33203 5.64703 9.33203 6.00065V6.66732C9.33203 6.3137 9.47251 5.97456 9.72256 5.72451C9.9726 5.47446 10.3117 5.33398 10.6654 5.33398C11.019 5.33398 11.3581 5.47446 11.6082 5.72451C11.8582 5.97456 11.9987 6.3137 11.9987 6.66732V7.33398C11.9987 6.98036 12.1392 6.64122 12.3893 6.39118C12.6393 6.14113 12.9785 6.00065 13.3321 6.00065C13.6857 6.00065 14.0249 6.14113 14.2749 6.39118C14.525 6.64122 14.6654 6.98036 14.6654 7.33398L14.6654 9.33398C14.6654 10.7485 14.1035 12.105 13.1033 13.1052C12.1031 14.1054 10.7465 14.6673 9.33203 14.6673H7.99877C6.1321 14.6673 4.99877 14.094 4.00543 13.1073L1.60543 10.7073C1.37606 10.4533 1.25316 10.1208 1.26218 9.77861C1.27121 9.43646 1.41146 9.11088 1.65391 8.86929C1.89636 8.6277 2.22243 8.4886 2.56461 8.48078C2.90679 8.47297 3.23888 8.59704 3.4921 8.82732L4.66543 10.0007M6.66536 6.33398V2.66732C6.66536 2.3137 6.52489 1.97456 6.27484 1.72451C6.02479 1.47446 5.68565 1.33398 5.33203 1.33398C4.97841 1.33398 4.63927 1.47446 4.38922 1.72451C4.13917 1.97456 3.9987 2.3137 3.9987 2.66732V9.33398" stroke="#F97316" stroke-width="1.5" stroke-linecap="round" stroke-linejoin="round"/>
</g>
<defs>
<clipPath id="clip0_0_1495">
<rect width="16" height="16" fill="white"/>
</clipPath>
</defs>
</svg>
